<?xml version="1.0" encoding="UTF-8"?>
<svg version="1.1" xmlns="http://www.w3.org/2000/svg" width="601" height="300">
<path d="M0 0 C198.33 0 396.66 0 601 0 C601 99 601 198 601 300 C402.67 300 204.34 300 0 300 C0 201 0 102 0 0 Z " fill="#937947" transform="translate(0,0)"/>
<path d="M0 0 C198.33 0 396.66 0 601 0 C601 24.75 601 49.5 601 75 C476.92 75 352.84 75 225 75 C225 66.75 225 58.5 225 50 C216.75 50 208.5 50 200 50 C200 58.25 200 66.5 200 75 C134 75 68 75 0 75 C0 50.25 0 25.5 0 0 Z " fill="#947A48" transform="translate(0,0)"/>
<path d="M0 0 C8.25 0 16.5 0 25 0 C25 8.25 25 16.5 25 25 C149.08 25 273.16 25 401 25 C401 33.25 401 41.5 401 50 C368 50 335 50 301 50 C301 58.25 301 66.5 301 75 C292.75 75 284.5 75 276 75 C276 66.75 276 58.5 276 50 C151.92 50 27.84 50 -100 50 C-100 58.25 -100 66.5 -100 75 C-108.25 75 -116.5 75 -125 75 C-125 66.75 -125 58.5 -125 50 C-149.75 50 -174.5 50 -200 50 C-200 41.75 -200 33.5 -200 25 C-134 25 -68 25 0 25 C0 16.75 0 8.5 0 0 Z " fill="#78643A" transform="translate(200,50)"/>
<path d="M0 0 C7.92 0 15.84 0 24 0 C24 8.25 24 16.5 24 25 C131.58 25 239.16 25 350 25 C350 33.25 350 41.5 350 50 C151.67 50 -46.66 50 -251 50 C-251 41.75 -251 33.5 -251 25 C-168.17 25 -85.34 25 0 25 C0 16.75 0 8.5 0 0 Z " fill="#78633A" transform="translate(251,250)"/>
<path d="M0 0 C198.33 0 396.66 0 601 0 C601 8.25 601 16.5 601 25 C493.42 25 385.84 25 275 25 C275 33.25 275 41.5 275 50 C267.08 50 259.16 50 251 50 C251 41.75 251 33.5 251 25 C168.17 25 85.34 25 0 25 C0 16.75 0 8.5 0 0 Z " fill="#7A653B" transform="translate(0,175)"/>
<path d="M0 0 C24.75 0 49.5 0 75 0 C75 8.25 75 16.5 75 25 C50.25 25 25.5 25 0 25 C0 16.75 0 8.5 0 0 Z " fill="#9A7E4D" transform="translate(0,100)"/>
<path d="M0 0 C8.58 0 17.16 0 26 0 C26 8.25 26 16.5 26 25 C17.42 25 8.84 25 0 25 C0 16.75 0 8.5 0 0 Z " fill="#7D663D" transform="translate(400,25)"/>
<path d="M0 0 C8.58 0 17.16 0 26 0 C26 8.25 26 16.5 26 25 C17.42 25 8.84 25 0 25 C0 16.75 0 8.5 0 0 Z " fill="#7D663D" transform="translate(225,0)"/>
<path d="M0 0 C8.25 0 16.5 0 25 0 C25 8.25 25 16.5 25 25 C16.75 25 8.5 25 0 25 C0 16.75 0 8.5 0 0 Z " fill="#7C653C" transform="translate(401,225)"/>
<path d="M0 0 C8.25 0 16.5 0 25 0 C25 8.25 25 16.5 25 25 C16.75 25 8.5 25 0 25 C0 16.75 0 8.5 0 0 Z " fill="#79633A" transform="translate(0,225)"/>
<path d="M0 0 C8.25 0 16.5 0 25 0 C25 8.25 25 16.5 25 25 C16.75 25 8.5 25 0 25 C0 16.75 0 8.5 0 0 Z " fill="#7F683D" transform="translate(225,125)"/>
<path d="M0 0 C8.25 0 16.5 0 25 0 C25 8.25 25 16.5 25 25 C16.75 25 8.5 25 0 25 C0 16.75 0 8.5 0 0 Z " fill="#796339" transform="translate(0,25)"/>
</svg>
